<?xml version="1.0" encoding="utf-8"?>
<!-- Generator: Adobe Illustrator 17.0.0, SVG Export Plug-In . SVG Version: 6.00 Build 0)  -->
<!DOCTYPE svg PUBLIC "-//W3C//DTD SVG 1.1//EN" "http://www.w3.org/Graphics/SVG/1.1/DTD/svg11.dtd">
<svg version="1.1" id="Layer_1" xmlns="http://www.w3.org/2000/svg" xmlns:xlink="http://www.w3.org/1999/xlink" x="0px" y="0px"
	 width="648px" height="648px" viewBox="0 0 648 648" enable-background="new 0 0 648 648" xml:space="preserve">
<path style="fill:#aaaaaa;" d="M612,36H252c-27,0-36,9-36,36v144H36c-27,0-36,9-36,36v252c0,27,9,36,36,36h72v101.25c0,0,0,6.75,6.75,6.75
	c4.006-0.079,6.75,0,20.25-13.5l99-94.5h162c27,0,36-9,36-36V377.183l81,77.317c13.5,13.5,16.244,13.421,20.25,13.5
	c6.75,0,6.75-6.75,6.75-6.75V360h72c27,0,36-9,36-36V72C648,45,639,36,612,36z M612,324H504v72.158L428.432,324H252V72h360V324z"/>
</svg>
